# xmcd
#
# Track frame offsets:
#	150
#	11399
#	21404
#	33487
#	43633
#	53557
#	64816
#	76841
#	86097
#	99812
#	112029
#
# Disc length: 1634 seconds
#
# Revision: 0
# Processed by: cddbd v1.5.2PL0 Copyright (c) Steve Scherf et al.
# Submitted via: EasyCDDAExtractor 2010.4.0.0
#
DISCID=7e06600b
DTITLE=Barbara Lewis - Baby I'm Yours
DYEAR=1963
DGENRE=Pop
TTITLE0=Baby I'm Yours
TTITLE1=My Heart Went Do Da Dat
TTITLE2=Come Home
TTITLE3=Think A Little Sugar
TTITLE4=If You Love Her
TTITLE5=Stop That Girl
TTITLE6=Hello Stranger
TTITLE7=Someday We're Gonna Love Again
TTITLE8=Snap Your Fingers
TTITLE9=How Can I Say Goodbye
TTITLE10=Straighten Up Your Heart
EXTD=
EXTT0=
EXTT1=
EXTT2=
EXTT3=
EXTT4=
EXTT5=
EXTT6=
EXTT7=
EXTT8=
EXTT9=
EXTT10=
PLAYORDER=
